<svg t="1717423604792" class="icon" viewBox="0 0 1024 1024" version="1.1" xmlns="http://www.w3.org/2000/svg" p-id="5742" width="64" height="64"><path d="M512 554.7c-23.6 0-42.7-19.1-42.7-42.7V85.3c0-23.6 19.1-42.7 42.7-42.7s42.7 19.1 42.7 42.7V512c0 23.6-19.1 42.7-42.7 42.7z" p-id="5743" fill="#8a8a8a"></path><path d="M512 1002.7c-270.6 0-490.7-220.1-490.7-490.7 0-201.4 120.9-380 308.1-455.2 16.2-6.7 35 1.3 41.6 17.8 6.6 16.4-1.4 35-17.8 41.6C190.5 181.6 85.3 336.9 85.3 512c0 235.2 191.4 426.7 426.7 426.7 235.2 0 426.7-191.4 426.7-426.7 0-175.1-105.2-330.4-267.9-395.8-16.4-6.6-24.4-25.2-17.8-41.6 6.6-16.4 25.3-24.3 41.6-17.8C881.8 132 1002.7 310.6 1002.7 512c0 270.5-220.2 490.7-490.7 490.7z" p-id="5744" fill="#8a8a8a"></path></svg>