<?xml version="1.0" standalone="no"?><!DOCTYPE svg PUBLIC "-//W3C//DTD SVG 1.1//EN" "http://www.w3.org/Graphics/SVG/1.1/DTD/svg11.dtd"><svg t="1711868566737" class="icon" viewBox="0 0 1024 1024" version="1.1" xmlns="http://www.w3.org/2000/svg" p-id="5007" xmlns:xlink="http://www.w3.org/1999/xlink" width="64" height="64"><path d="M352 512a160 160 0 1 1 320 0 160 160 0 0 1-320 0zM512 416a96 96 0 1 0 0 192 96 96 0 0 0 0-192z" fill="#8a8a8a" p-id="5008"></path><path d="M184.448 454.229333c-17.877333 25.770667-24.448 45.952-24.448 57.770667 0 11.818667 6.570667 32 24.448 57.770667 17.322667 24.874667 43.008 51.882667 75.52 76.842666C325.12 696.618667 414.421333 736 512 736s186.88-39.381333 252.032-89.386667c32.512-24.96 58.197333-51.968 75.52-76.842666 17.877333-25.770667 24.448-45.952 24.448-57.770667 0-11.818667-6.570667-32-24.448-57.770667-17.322667-24.874667-43.008-51.882667-75.52-76.842666C698.88 327.381333 609.578667 288 512 288s-186.88 39.381333-252.032 89.386667c-32.512 24.96-58.197333 51.968-75.52 76.842666z m36.522667-127.616C294.826667 269.952 397.482667 224 512 224s217.173333 45.952 290.986667 102.613333c36.992 28.373333 67.541333 60.032 89.130666 91.136 20.992 30.250667 35.882667 63.402667 35.882667 94.250667 0 30.848-14.933333 64-35.882667 94.250667-21.589333 31.104-52.138667 62.72-89.088 91.136-73.813333 56.661333-176.512 102.613333-291.029333 102.613333s-217.173333-45.952-290.986667-102.613333c-36.992-28.373333-67.541333-60.032-89.130666-91.136C110.933333 576 96 542.848 96 512c0-30.848 14.933333-64 35.882667-94.250667 21.589333-31.104 52.138667-62.72 89.088-91.136z" fill="#8a8a8a" p-id="5009"></path></svg>