<?xml version="1.0" standalone="no"?><!DOCTYPE svg PUBLIC "-//W3C//DTD SVG 1.1//EN" "http://www.w3.org/Graphics/SVG/1.1/DTD/svg11.dtd"><svg t="1711868662096" class="icon" viewBox="0 0 1024 1024" version="1.1" xmlns="http://www.w3.org/2000/svg" p-id="5266" xmlns:xlink="http://www.w3.org/1999/xlink" width="64" height="64"><path d="M875.946667 193.28a32 32 0 0 0-45.226667-45.226667l-682.666667 682.666667a32 32 0 1 0 45.226667 45.226667l121.472-121.472c58.325333 27.477333 125.44 45.525333 197.248 45.525333 114.517333 0 217.173333-45.952 290.986667-102.613333 36.992-28.373333 67.541333-60.032 89.130666-91.136 20.992-30.250667 35.882667-63.402667 35.882667-94.250667 0-30.848-14.933333-64-35.882667-94.250667-21.589333-31.104-52.138667-62.72-89.088-91.136-11.221333-8.576-23.04-16.938667-35.498666-24.874666L875.946667 193.28zM721.066667 348.202667c15.232 9.130667 29.610667 18.944 42.965333 29.184 32.512 24.96 58.197333 51.968 75.52 76.842666 17.877333 25.770667 24.448 45.952 24.448 57.770667 0 11.818667-6.570667 32-24.448 57.770667-17.322667 24.874667-43.008 51.882667-75.52 76.842666-65.152 50.005333-154.453333 89.386667-252.032 89.386667a394.666667 394.666667 0 0 1-148.693333-30.08l60.458666-60.416a160 160 0 0 0 221.738667-221.738667l75.52-75.52z m-250.453334 250.453333l128-128.042667a96 96 0 0 1-128 128zM512 224c44.032 0 86.357333 6.826667 125.909333 18.389333a10.368 10.368 0 0 1 4.266667 17.365334l-35.157333 35.2a10.837333 10.837333 0 0 1-10.112 2.858666A378.538667 378.538667 0 0 0 512 288c-97.578667 0-186.88 39.381333-252.032 89.386667-32.512 24.96-58.197333 51.968-75.52 76.842666-17.877333 25.770667-24.448 45.952-24.448 57.770667 0 11.818667 6.570667 32 24.448 57.770667 15.104 21.76 36.608 45.098667 63.488 67.285333 4.949333 4.053333 5.418667 11.52 0.853333 16.085333l-30.208 30.250667a10.496 10.496 0 0 1-14.208 0.682667 406.186667 406.186667 0 0 1-72.490666-77.824C110.933333 576 96 542.848 96 512c0-30.848 14.933333-64 35.882667-94.250667 21.589333-31.104 52.138667-62.72 89.088-91.136C294.826667 269.952 397.482667 224 512 224z" fill="#8a8a8a" p-id="5267"></path><path d="M512 352c5.034667 0 10.069333 0.213333 14.976 0.682667 8.405333 0.810667 11.434667 10.837333 5.504 16.810666l-51.754667 51.712a96.256 96.256 0 0 0-59.52 59.52L369.493333 532.48c-5.973333 5.973333-16 2.901333-16.810666-5.504A160 160 0 0 1 512 352z" fill="#8a8a8a" p-id="5268"></path></svg>