<?xml version="1.0" standalone="no"?><!DOCTYPE svg PUBLIC "-//W3C//DTD SVG 1.1//EN" "http://www.w3.org/Graphics/SVG/1.1/DTD/svg11.dtd"><svg t="1712831187904" class="icon" viewBox="0 0 1024 1024" version="1.1" xmlns="http://www.w3.org/2000/svg" p-id="6668" xmlns:xlink="http://www.w3.org/1999/xlink" width="64" height="64"><path d="M83.5 353.2S293.3 318 424.6 483.9c-69.8 70-113.5 113.8-113.5 113.8L634.5 571l17.1-314.8-104.8 105.1s-192.6-227-463.3-8.1z" fill="#8a8a8a" p-id="6669"></path><path d="M932.1 927.6H140.8c-10.4 0-18.8-8.4-18.8-18.8V513.2c0-10.4 8.4-18.8 18.8-18.8s18.8 8.4 18.8 18.8V890h753.7V136.3H544.1c-10.4 0-18.8-8.4-18.8-18.8s8.4-18.8 18.8-18.8h388c10.4 0 18.8 8.4 18.8 18.8v791.3c0 10.4-8.4 18.8-18.8 18.8z" fill="#8a8a8a" p-id="6670"></path><path d="M311.1 616.5c-7.3 0-14-4.2-17.1-10.9-3.3-7.1-1.8-15.6 3.7-21.2l101.4-101.7c-123-140.3-310.6-111.2-312.6-111-8.4 1.4-16.7-3.1-20.2-10.9-3.5-7.8-1.3-16.9 5.3-22.3 212.2-171.5 395.9-84.7 475.7-4.4l90.9-91.2c5.5-5.5 13.9-7.1 21-3.9 7.1 3.2 11.5 10.4 11.1 18.2L653.2 572c-0.5 9.4-7.9 17-17.2 17.7l-323.4 26.6c-0.5 0.2-1 0.2-1.5 0.2zM146.3 331.3c75.9 2.2 201.7 25.4 293.1 141 5.9 7.5 5.3 18.2-1.4 25l-77.4 77.6 256.1-21.1 13.5-249.3-70 70.2c-3.7 3.7-9.1 5.5-14 5.5-5.2-0.2-10.2-2.6-13.6-6.6-6.9-8.2-160.9-183.4-386.3-42.3z" fill="#8a8a8a" p-id="6671"></path></svg>