<?xml version="1.0" standalone="no"?><!DOCTYPE svg PUBLIC "-//W3C//DTD SVG 1.1//EN" "http://www.w3.org/Graphics/SVG/1.1/DTD/svg11.dtd"><svg t="1712831262307" class="icon" viewBox="0 0 1024 1024" version="1.1" xmlns="http://www.w3.org/2000/svg" p-id="8868" xmlns:xlink="http://www.w3.org/1999/xlink" width="64" height="64"><path d="M896 214c0-66.274-53.726-120-120-120H248c-66.274 0-120 53.726-120 120v596c0 66.274 53.726 120 120 120h528c66.274 0 120-53.726 120-120v-76c0-16.569-13.431-30-30-30-16.569 0-30 13.431-30 30v76c0 33.137-26.863 60-60 60H248c-33.137 0-60-26.863-60-60v-73h208c16.569 0 30-13.431 30-30 0-16.569-13.431-30-30-30H188V542h208c16.569 0 30-13.431 30-30 0-16.569-13.431-30-30-30H188V347h202c16.569 0 30-13.431 30-30 0-16.569-13.431-30-30-30H188v-73c0-33.137 26.863-60 60-60h528c33.137 0 60 26.863 60 60v76c0 16.569 13.431 30 30 30 16.569 0 30-13.431 30-30v-76zM710.254 384.06c0-26.749-32.36-40.124-51.246-21.18L531.754 490.529c-11.672 11.708-11.672 30.653 0 42.361l127.254 127.649c18.886 18.944 51.246 5.569 51.246-21.18a30.002 30.002 0 0 0-8.754-21.181l-76.526-76.763c0.948 0.072 1.906 0.108 2.874 0.108h266.813c18.553 0 33.593-13.494 33.593-30.14s-15.04-30.14-33.593-30.14H627.848c-0.731 0-1.457 0.021-2.177 0.062l75.829-76.064a30.002 30.002 0 0 0 8.754-21.181z" p-id="8869" fill="#8a8a8a"></path></svg>