<svg t="1716291385266" class="icon" viewBox="0 0 1024 1024" version="1.1" xmlns="http://www.w3.org/2000/svg" p-id="2637" width="64" height="64"><path d="M92.48 159.808a32 32 0 0 1 7.04-63.616c93.504 10.4 310.272 74.56 382.176 293.376l32.576-81.44a32 32 0 0 1 59.424 23.744l-75.84 189.728-189.76-75.904a32 32 0 0 1 23.776-59.424l93.312 37.344C369.28 229.12 179.52 169.472 92.48 159.808z" p-id="2638" fill="#8a8a8a"></path><path d="M896 224a96 96 0 0 0-96-96h-128a32 32 0 0 0 0 64h128a32 32 0 0 1 32 32v576a32 32 0 0 1-32 32H224a32 32 0 0 1-32-32v-192a32 32 0 1 0-64 0v192a96 96 0 0 0 96 96h576a96 96 0 0 0 96-96V224z" p-id="2639" fill="#8a8a8a"></path></svg>