<?xml version="1.0" standalone="no"?><!DOCTYPE svg PUBLIC "-//W3C//DTD SVG 1.1//EN" "http://www.w3.org/Graphics/SVG/1.1/DTD/svg11.dtd"><svg t="1712684555797" class="icon" viewBox="0 0 1024 1024" version="1.1" xmlns="http://www.w3.org/2000/svg" p-id="4467" xmlns:xlink="http://www.w3.org/1999/xlink" width="64" height="64"><path d="M590.144778 829.13794c-6.371104 1.586125-12.858866 2.995217-19.311835 4.182252-16.84669 3.133364-27.984355 19.338441-24.868387 36.205597 1.539053 8.293897 6.249331 15.207353 12.646018 19.71911 6.597255 4.637624 14.987343 6.734378 23.532973 5.145184 7.67582-1.425466 15.416108-3.103688 23.004947-4.996804 16.637935-4.142343 26.773783-20.998243 22.62223-37.626969C623.633496 835.123258 606.7909 824.99048 590.144778 829.13794L590.144778 829.13794 590.144778 829.13794zM590.144778 829.13794" fill="#c93e2c" p-id="4468"></path><path d="M819.759339 412.94396c2.175549 6.557346 6.332219 11.906168 11.576663 15.60235 7.780197 5.477758 17.954931 7.323802 27.66713 4.112668 16.278755-5.409197 25.101701-22.965038 19.710924-39.238676-2.452865-7.4159-5.174859-14.857383-8.073886-22.103414-6.372128-15.923668-24.430412-23.672142-40.362266-17.306154-15.914458 6.365988-23.672142 24.435529-17.296945 40.362266C815.421544 400.462694 817.705564 406.707932 819.759339 412.94396L819.759339 412.94396 819.759339 412.94396zM819.759339 412.94396" fill="#c93e2c" p-id="4469"></path><path d="M691.042769 784.806269c-5.478781 3.619434-11.130502 7.116071-16.82827 10.392698-14.857383 8.573259-19.949354 27.563776-11.376095 42.417065 2.326998 4.040013 5.420453 7.341199 8.992815 9.867742 9.582239 6.735401 22.584368 7.745405 33.419134 1.50426 6.766101-3.904936 13.500479-8.061606 20.023032-12.372795 14.306844-9.448186 18.24248-28.711925 8.785084-43.023886C724.605166 779.281439 705.352683 775.355013 691.042769 784.806269L691.042769 784.806269 691.042769 784.806269zM691.042769 784.806269" fill="#c93e2c" p-id="4470"></path><path d="M898.020774 499.665067c-0.671289-17.131169-15.108093-30.470989-32.252565-29.803793-17.118889 0.675382-30.472012 15.116279-29.795607 32.244378 0.254803 6.55223 0.320295 13.196557 0.172939 19.744693-0.242524 10.744715 5.0142 20.322861 13.184277 26.082028 4.865821 3.428076 10.774391 5.499248 17.175171 5.647627 17.140379 0.381693 31.342846-13.213953 31.724539-30.358425C898.398374 515.406586 898.329812 507.48415 898.020774 499.665067L898.020774 499.665067 898.020774 499.665067zM898.020774 499.665067" fill="#c93e2c" p-id="4471"></path><path d="M814.698067 703.124945c-13.748119-10.314926-33.184797-7.514137-43.478234 6.206352-3.942799 5.247514-8.095375 10.435677-12.347213 15.432481-11.106965 13.054317-9.538237 32.656771 3.50994 43.767829 0.74599 0.633427 1.49505 1.213641 2.279926 1.75497 12.975523 9.148357 31.004131 7.043417 41.497113-5.265934 5.075599-5.958712 10.021238-12.160971 14.736633-18.431791C831.188646 732.87348 828.40116 713.419406 814.698067 703.124945L814.698067 703.124945 814.698067 703.124945zM814.698067 703.124945" fill="#c93e2c" p-id="4472"></path><path d="M860.341616 590.876442c-16.364713-5.131881-33.791617 3.978614-38.918381 20.343327-1.962701 6.249331-4.142343 12.529361-6.491855 18.683525-5.15337 13.539364-0.212848 28.443819 11.111059 36.422538 2.076288 1.465374 4.364401 2.700505 6.852058 3.6399 16.018835 6.115278 33.960463-1.919722 40.066531-17.950837 2.787486-7.311523 5.374404-14.786775 7.710612-22.221094C885.800451 613.42704 876.699166 596.012416 860.341616 590.876442L860.341616 590.876442 860.341616 590.876442zM860.341616 590.876442" fill="#c93e2c" p-id="4473"></path><path d="M454.67541 833.602625c-27.759227-4.988618-54.390771-13.469779-79.643921-25.314549-0.299829-0.155543-0.563842-0.332575-0.880043-0.471744-5.951549-2.804882-11.896958-5.804193-17.653055-8.936533-0.016373-0.026606-0.055259-0.038886-0.086981-0.052189-10.56973-5.815449-20.87647-12.252045-30.895661-19.311835-146.062634-102.883205-181.179432-305.428248-78.279854-451.489858 22.37152-31.750121 49.445132-58.234309 79.639828-79.232552 0.36839-0.254803 0.740874-0.511653 1.109264-0.775666 106.375749-73.291237 250.808256-78.227666 363.761817-2.916423l-24.25645 35.053354c-6.747681 9.755178-2.596128 16.863063 9.213849 15.805988l105.373932-9.434883c11.819187-1.062192 18.888186-11.290137 15.709797-22.705118l-28.29544-101.955066c-3.168156-11.429307-11.280928-12.798491-18.033725-3.043313l-24.312732 35.135218c-82.890872-55.642275-182.315302-76.865645-280.989649-59.746756-9.942443 1.721201-19.736507 3.822049-29.405727 6.274914-0.073678 0.00921-0.134053 0.017396-0.190335 0.029676-0.372483 0.095167-0.75827 0.216941-1.118474 0.317225-85.086887 21.851681-159.335938 71.477938-212.313523 142.290727-0.442068 0.528026-0.900509 1.043772-1.326205 1.623987-1.760087 2.375094-3.505847 4.803399-5.217838 7.224542-2.804882 3.978614-5.560646 8.057513-8.199753 12.139481-0.333598 0.48914-0.580215 0.983397-0.870834 1.482771-43.716664 67.74287-64.804958 146.065703-61.186548 225.795583 0.004093 0.264013-0.01228 0.529049 0 0.798179 0.352017 7.78736 0.966001 15.685237 1.803066 23.455201 0.048095 0.502443 0.152473 0.974188 0.242524 1.477654 0.86674 7.822153 1.950422 15.653515 3.315512 23.48897 13.856589 79.922261 51.561329 151.84329 108.058065 207.806883 0.12996 0.134053 0.25992 0.273223 0.398066 0.407276 0.038886 0.056282 0.095167 0.082888 0.13917 0.130983 15.181771 14.968923 31.694863 28.820396 49.467645 41.340547 46.524616 32.781614 98.327446 54.451146 153.962557 64.436568 16.885576 3.034103 33.006741-8.207939 36.031635-25.080212C482.776422 852.761987 471.551776 836.622402 454.67541 833.602625L454.67541 833.602625 454.67541 833.602625zM454.67541 833.602625" fill="#c93e2c" p-id="4474"></path><path d="M493.069859 263.766382c-13.885242 0-25.1324 11.260461-25.1324 25.124214L467.937458 539.183106l228.912573 118.333082c3.678786 1.902326 7.627724 2.803859 11.511171 2.803859 9.092076 0 17.86795-4.953825 22.341844-13.586436 6.365988-12.33391 1.546216-27.477818-10.782577-33.843806L518.175653 508.584204 518.175653 288.886503C518.17156 275.021727 506.937704 263.766382 493.069859 263.766382L493.069859 263.766382 493.069859 263.766382zM493.069859 263.766382" fill="#c93e2c" p-id="4475"></path></svg>