<?xml version="1.0" standalone="no"?><!DOCTYPE svg PUBLIC "-//W3C//DTD SVG 1.1//EN" "http://www.w3.org/Graphics/SVG/1.1/DTD/svg11.dtd"><svg t="1712310701360" class="icon" viewBox="0 0 1024 1024" version="1.1" xmlns="http://www.w3.org/2000/svg" p-id="15412" xmlns:xlink="http://www.w3.org/1999/xlink" width="64" height="64"><path d="M630.7 657s-74.9-4-118.7-4-118.7 4-118.7 4c-106.6 18.9-187.5 99.9-187.5 211.9v149.3h612.4V868.9c0-112-81-193-187.5-211.9z" fill="#c93e2c" p-id="15413" data-spm-anchor-id="a313x.search_index.0.i7.c8603a81L91YJH" class="selected"></path><path d="M405.8 656.5s-66.1 73.8-73.4 111.7c-7.3 37.9 36.7 67.4 36.7 67.4s-39 38.2-37.5 65.1c1.5 27 74 117.4 74 117.4h43.7c-0.1 0.1-13.1-290.5-43.5-361.6zM618.2 656.5s66.1 73.8 73.4 111.7c7.3 37.9-36.7 67.4-36.7 67.4s39 38.2 37.5 65.1c-1.5 27-74 117.4-74 117.4h-43.7c0.1 0.1 13.1-290.5 43.5-361.6z" fill="#4F817A" p-id="15414"></path><path d="M562.1 654.1c-17.5-0.6-35.5-1-50.1-1-14.6 0-32.6 0.4-50.1 1-26.2 38.3-43.6 105.9-43.6 182.9 0 75.9 30.5 181.2 30.5 181.2h126.4s30.5-105.3 30.5-181.2c0-77-17.4-144.6-43.6-182.9z" fill="#C2C9AC" p-id="15415"></path><path d="M567.2 666.5c0 30.5-24.7 55.2-55.2 55.2-30.5 0-55.2-24.7-55.2-55.2v-91.8c0-30.5 24.7-55.2 55.2-55.2 30.5 0 55.2 24.7 55.2 55.2v91.8z" fill="#FFC9A0" p-id="15416"></path><path d="M779.3 348c0 187.3-141 272.6-267.3 272.6-126.3 0-267.3-85.3-267.3-272.6S305.9 30.2 512 30.2c206.1 0 267.3 130.5 267.3 317.8z" fill="#FFC9A0" p-id="15417"></path><path d="M844.1 379.9c-13.2 45.9-57.1 73.5-98 61.7-40.9-11.8-63.4-58.5-50.2-104.4 13.2-45.9 57.1-73.5 98-61.7 40.9 11.8 63.4 58.5 50.2 104.4zM179.9 379.9c13.2 45.9 57.1 73.5 98 61.7s63.4-58.5 50.2-104.4c-13.2-45.9-57.1-73.5-98-61.7-40.9 11.8-63.4 58.5-50.2 104.4z" fill="#FFC9A0" p-id="15418"></path><path d="M512 352c-6.1 0-22.8 64-22.8 96.3s7.9 43.3 22.8 43.3 22.8-11 22.8-43.3S518.1 352 512 352z" fill="#FFB094" p-id="15419"></path><path d="M757.8 302.6c-8.3-1.1-70.8-13.1-92.3-13.7-3.9-0.1-7.7-0.1-11.3-0.1-31.7 0-57 3.6-75.3 10.8-6.6 2.6-37.1 17-66.8 17-29.8 0-60.3-14.4-66.8-17-18.3-7.2-43.6-10.8-75.3-10.8-3.6 0-7.4 0-11.3 0.1-21.5 0.6-84 12.6-92.3 13.7-15.8 2.1-13.7 26.3-4.2 34.8 6.3 5.6 11.6 18.1 15.4 27.7-0.4 25.5 3.5 55.5 22 69.1 16.3 11.9 44.2 26.1 85 26.1 5.6 0 11.3-0.3 17.1-0.8 26.8-2.5 45.9-18.1 58.9-36.5 13.7-19.2 17.2-44.2 23.2-54.4 4.1-7 10.7-17 28.3-17s24.3 10 28.3 17c5.9 10.2 9.5 35.2 23.2 54.4 13.1 18.3 32.1 34 58.9 36.5 5.8 0.5 11.5 0.8 17.1 0.8 40.8 0 68.8-14.2 85-26.1 18.5-13.6 22.5-43.7 22-69.1 3.8-9.6 9.1-22.1 15.4-27.7 9.5-8.4 11.6-32.7-4.2-34.8z m-290.3 61.1c-3.2 20-22.1 74.8-67.4 79-45.3 4.2-74.8-10.5-90.6-22.1-15.8-11.6-16.9-48.5-13.7-76.9 3.2-28.4 22.1-36.9 63.2-37.9 41.1-1.1 65.8 3.9 80.1 9.5 24.1 9.5 31.5 28.4 28.4 48.4z m247.1 56.9c-15.8 11.6-45.3 26.3-90.6 22.1-45.3-4.2-64.3-59-67.4-79-3.2-20 4.2-39 28.4-48.5 14.3-5.6 39-10.5 80.1-9.5 41.1 1.1 60 9.5 63.2 37.9 3.1 28.6 2.1 65.4-13.7 77z" fill="#406863" p-id="15420"></path><path d="M618.7 656.5l-51.5-3.4-55.2 42.5-55.2-42.6-51.5 3.4s-4.1 71.8 22.3 111.7l84.4-68.3 84.4 68.3c26.4-39.8 22.3-111.6 22.3-111.6z" fill="#DEE6C5" p-id="15421"></path><path d="M512 699.9l-47.3 38.3 29.2 40.6h36.2l29.2-40.6zM530.1 778.8h-36.2l-37.1 239.4h110.4z" fill="#DD4A5E" p-id="15422"></path><path d="M770 161.8c-6-20.4-40-156-258.6-156s-252.7 135.6-258.6 156c-30.5 103.7 0 196.8 20.5 196.8s9.2-77.1 9.2-77.1 50.2 2 79-43.8c28.8-45.8 56.8-31.5 56.8-31.4 17.7 10.3 38 16.7 59.9 14.1 73.8-8.6 96.6-30.6 96.6-30.6s8.2 105.1 76.8 105.7c68.6 0.6 88.6-14 88.6-14s-11.3 77.1 9.2 77.1c20.6 0 51.1-93.1 20.6-196.8z" fill="#FF7E54" p-id="15423"></path></svg>